<svg width="25" height="24" viewBox="0 0 25 24" fill="none" xmlns="http://www.w3.org/2000/svg">
<path fill-rule="evenodd" clip-rule="evenodd" d="M10.156 5.13208L9.0657 5.69329L4.80054 17.9276L5.65036 18.4567L8.77708 18.1681L9.65897 15.4743L12.6574 15.2338L13.2507 17.3022L14.1165 17.5748L16.3934 17.3022L12.9781 5.69329L10.156 5.13208ZM11.1118 8.98044L9.91991 13.3903L12.3963 13.2579L11.1118 8.98044Z" fill="white"/>
<path d="M18.2534 3.24052C17.7403 4.71569 16.5537 5.4693 16.0246 5.66172V7.60195L16.7622 7.71419L17.8525 7.21712C17.8471 8.91143 17.8397 12.3321 17.8525 12.4604C17.8653 12.5887 19.2582 12.6314 19.953 12.6368L20.402 12.3V3.46506L19.953 3C19.1513 3.09621 19.0912 3.10022 18.2534 3.24052Z" fill="white"/>
</svg>
