<svg width="36" height="36" viewBox="0 0 36 36" fill="none" xmlns="http://www.w3.org/2000/svg">
<path fill-rule="evenodd" clip-rule="evenodd" d="M2.16346 2.37982C1.58994 2.37982 1.125 2.84476 1.125 3.41828C1.125 3.99181 1.58993 4.45674 2.16346 4.45674H6.31731C7.27319 4.45674 8.04808 5.23164 8.04808 6.18751V24.2308C8.04808 24.8043 8.51301 25.2692 9.08654 25.2692H26.2727C27.564 25.2692 28.7673 24.6148 29.4691 23.5308L29.9282 22.8216C30.9719 21.2094 29.8147 19.0817 27.8941 19.0817H13.1971C12.6236 19.0817 12.1587 19.5467 12.1587 20.1202C12.1587 20.6937 12.6236 21.1587 13.1971 21.1587H27.8941C28.1685 21.1587 28.3338 21.4626 28.1847 21.6929L27.7256 22.4021C27.4066 22.8948 26.8597 23.1923 26.2727 23.1923H10.125V6.18751C10.125 4.08458 8.42024 2.37982 6.31731 2.37982H2.16346ZM11.0769 27.3462C9.35634 27.3462 7.96154 28.741 7.96154 30.4616C7.96154 32.1821 9.35634 33.5769 11.0769 33.5769C12.7975 33.5769 14.1923 32.1821 14.1923 30.4616C14.1923 28.741 12.7975 27.3462 11.0769 27.3462ZM26.3077 27.3462C24.5871 27.3462 23.1923 28.741 23.1923 30.4616C23.1923 32.1821 24.5871 33.5769 26.3077 33.5769C28.0283 33.5769 29.4231 32.1821 29.4231 30.4616C29.4231 28.741 28.0283 27.3462 26.3077 27.3462ZM10.0385 30.4616C10.0385 29.888 10.5034 29.4231 11.0769 29.4231C11.6504 29.4231 12.1154 29.888 12.1154 30.4616C12.1154 31.0351 11.6504 31.5 11.0769 31.5C10.5034 31.5 10.0385 31.0351 10.0385 30.4616ZM25.2692 30.4616C25.2692 29.888 25.7342 29.4231 26.3077 29.4231C26.8812 29.4231 27.3462 29.888 27.3462 30.4616C27.3462 31.0351 26.8812 31.5 26.3077 31.5C25.7342 31.5 25.2692 31.0351 25.2692 30.4616Z" fill="#894083"/>
</svg>
