<svg width="26" height="26" viewBox="0 0 26 26" fill="none" xmlns="http://www.w3.org/2000/svg">
<path fill-rule="evenodd" clip-rule="evenodd" d="M19.8911 21.163C20.1448 21.4167 20.5562 21.4167 20.8099 21.163C21.0636 20.9093 21.0636 20.498 20.8099 20.2442L13.9191 13.3534L20.8098 6.46275C21.0635 6.20904 21.0635 5.7977 20.8098 5.54399C20.5561 5.29028 20.1447 5.29028 19.891 5.54399L13.0003 12.4347L6.10964 5.54398C5.85593 5.29027 5.44458 5.29027 5.19087 5.54398C4.93716 5.79769 4.93716 6.20904 5.19087 6.46275L12.0816 13.3534L5.19077 20.2442C4.93706 20.498 4.93706 20.9093 5.19077 21.163C5.44448 21.4167 5.85583 21.4167 6.10954 21.163L13.0003 14.2722L19.8911 21.163Z" fill="#894083"/>
<path fill-rule="evenodd" clip-rule="evenodd" d="M5.93286 5.72076C5.77678 5.56468 5.52373 5.56468 5.36765 5.72076C5.21157 5.87684 5.21157 6.12989 5.36765 6.28597L12.4351 13.3534L5.36755 20.421C5.21147 20.5771 5.21147 20.8302 5.36755 20.9862C5.52363 21.1423 5.77668 21.1423 5.93276 20.9862L13.0003 13.9187L20.0679 20.9862C20.224 21.1423 20.477 21.1423 20.6331 20.9862C20.7892 20.8302 20.7892 20.5771 20.6331 20.421L13.5656 13.3534L20.633 6.28598C20.7891 6.1299 20.7891 5.87684 20.633 5.72076C20.4769 5.56468 20.2239 5.56468 20.0678 5.72076L13.0003 12.7882L5.93286 5.72076ZM5.01409 5.3672C5.36544 5.01586 5.93507 5.01586 6.28641 5.3672L13.0003 12.0811L19.7143 5.36721C20.0656 5.01587 20.6352 5.01587 20.9866 5.36721C21.3379 5.71855 21.3379 6.28819 20.9866 6.63953L14.2727 13.3534L20.9867 20.0675C21.338 20.4188 21.338 20.9884 20.9867 21.3398C20.6353 21.6911 20.0657 21.6911 19.7144 21.3398L13.0003 14.6258L6.28631 21.3398C5.93497 21.6911 5.36534 21.6911 5.01399 21.3398C4.66265 20.9885 4.66265 20.4188 5.01399 20.0675L11.728 13.3534L5.01409 6.63952C4.66275 6.28818 4.66275 5.71855 5.01409 5.3672Z" fill="#894083"/>
</svg>
