<svg width="36" height="36" viewBox="0 0 36 36" fill="none" xmlns="http://www.w3.org/2000/svg">
<path fill-rule="evenodd" clip-rule="evenodd" d="M11.2505 3.80768C6.43928 3.80768 2.6543 7.59266 2.6543 12.4038C2.6543 15.3446 3.91255 18.0299 6.14465 20.8202C8.37225 23.6048 11.5962 26.5263 15.5775 29.9412L15.5929 29.9553L15.9103 30.2442C17.0957 31.3233 18.9065 31.3267 20.096 30.2521L20.4082 29.97L20.4861 29.8993C24.3169 26.4181 27.5239 23.5038 29.7702 20.7504C32.0241 17.9876 33.3466 15.345 33.3466 12.4038C33.3466 7.59266 29.5616 3.80768 24.7505 3.80768C23.0272 3.80768 21.3516 4.31626 19.9244 5.19539C19.5137 5.44839 19.1232 5.73229 18.7578 6.04392C18.4915 6.27106 18.2384 6.51299 18.0005 6.76852C17.7625 6.51299 17.5094 6.27106 17.2431 6.04392C16.8777 5.73229 16.4872 5.44839 16.0765 5.19539C14.6493 4.31626 12.9737 3.80768 11.2505 3.80768ZM4.73122 12.4038C4.73122 8.73971 7.58633 5.8846 11.2505 5.8846C12.5671 5.8846 13.8683 6.27453 14.9872 6.96373C15.6307 7.36017 16.2056 7.85065 16.6827 8.41096L18.0005 9.95838L19.3182 8.41096C19.7953 7.85065 20.3702 7.36017 21.0137 6.96373C22.1326 6.27453 23.4338 5.8846 24.7505 5.8846C28.4146 5.8846 31.2697 8.73971 31.2697 12.4038C31.2697 14.6646 30.2711 16.8509 28.1609 19.4375C26.0308 22.0485 22.9512 24.8528 19.0707 28.3791L19.0144 28.4303L18.7037 28.711C18.3072 29.0692 17.7036 29.0681 17.3085 28.7084L16.9901 28.4185L16.955 28.3865L16.9332 28.3679C12.9401 24.9428 9.85712 22.1362 7.76649 19.5228C5.69504 16.9333 4.73122 14.6959 4.73122 12.4038Z" fill="#894083"/>
</svg>
