<svg width="25" height="24" viewBox="0 0 25 24" fill="none" xmlns="http://www.w3.org/2000/svg">
<path d="M14.1683 14.1283L14.157 14.1366L14.1462 14.1455L13.3304 14.8205C13.3238 14.817 13.3166 14.8132 13.309 14.8089C13.1951 14.7456 13.041 14.6269 12.8551 14.4465C12.487 14.0892 12.0642 13.559 11.6768 12.9738C11.2897 12.3892 10.9538 11.7733 10.7489 11.2526C10.6462 10.9914 10.5829 10.7703 10.5577 10.5988C10.5452 10.5144 10.5441 10.4557 10.5462 10.4173L11.3882 9.71568C11.7424 9.45413 11.8811 9.02858 11.8425 8.64379C11.8392 8.47951 11.8351 8.32404 11.8312 8.17539L11.8312 8.17472C11.8137 7.51312 11.8 6.9782 11.8687 6.25274L11.371 6.20556L11.8687 6.25273C11.9213 5.69829 11.6142 5.04885 10.9492 4.92451L8.77727 4.51843C8.12273 4.39606 7.56098 4.87872 7.46412 5.48907C6.42353 12.046 10.4714 18.3361 16.5982 19.4816C17.2527 19.6039 17.8145 19.1213 17.9113 18.5109L18.2855 16.1535C18.3789 15.5646 18.0278 14.9432 17.4136 14.8032C16.6645 14.5373 16.1038 14.336 15.3335 14.0328C14.9671 13.8441 14.5216 13.8678 14.1683 14.1283ZM13.4032 14.8508C13.4045 14.851 13.4052 14.8511 13.4052 14.8512L13.4032 14.8508Z" fill="white" stroke="white"/>
</svg>
