<svg width="32" height="32" viewBox="0 0 32 32" fill="none" xmlns="http://www.w3.org/2000/svg">
<path fill-rule="evenodd" clip-rule="evenodd" d="M12.9231 2.15387C6.97539 2.15387 2.15384 6.97542 2.15384 12.9231C2.15384 18.8708 6.97539 23.6923 12.9231 23.6923C15.5999 23.6923 18.0492 22.7153 19.9328 21.0989L26.8721 28.0381C27.2325 28.3986 27.817 28.3986 28.1775 28.0381C28.538 27.6776 28.538 27.0932 28.1775 26.7327L21.2263 19.7815C22.7665 17.9189 23.6923 15.5288 23.6923 12.9231C23.6923 6.97542 18.8708 2.15387 12.9231 2.15387ZM3.99999 12.9231C3.99999 7.99502 7.99499 4.00002 12.9231 4.00002C17.8511 4.00002 21.8461 7.99502 21.8461 12.9231C21.8461 17.8512 17.8511 21.8462 12.9231 21.8462C7.99499 21.8462 3.99999 17.8512 3.99999 12.9231Z" fill="#894083"/>
</svg>
