<svg width="151" height="52" viewBox="0 0 151 52" fill="none" xmlns="http://www.w3.org/2000/svg">
<g clip-path="url(#clip0)">
<path d="M46.5655 17.6752V17.69C46.5655 18.1039 46.2256 18.4439 45.8117 18.4439H42.1311C41.8207 18.4439 41.5398 18.503 41.259 18.6065C40.9929 18.7099 40.7416 18.8578 40.5495 19.0351C40.3425 19.2273 40.1947 19.4342 40.0764 19.6855C39.9582 19.9368 39.8991 20.2029 39.8991 20.4689C39.8991 20.7498 39.9582 21.0011 40.0764 21.2524C40.1947 21.4889 40.3425 21.7106 40.5495 21.888C40.7564 22.0801 40.9929 22.2132 41.259 22.3166C41.525 22.4201 41.8207 22.4792 42.1311 22.4792H43.3136C43.8457 22.4792 44.3483 22.5679 44.8361 22.7601C45.3091 22.9522 45.723 23.2035 46.0777 23.5287C46.4325 23.8539 46.6986 24.2234 46.9055 24.6669C47.1124 25.0956 47.2159 25.5538 47.2159 26.0416C47.2159 26.5294 47.1124 26.9876 46.9055 27.4162C46.6986 27.8449 46.4325 28.2292 46.0777 28.5396C45.723 28.8648 45.3091 29.1161 44.8361 29.2935C44.3631 29.4857 43.8605 29.5743 43.3136 29.5743H39.6034C39.1896 29.5743 38.8496 29.2344 38.8496 28.8205C38.8496 28.4066 39.1896 28.0666 39.6034 28.0666H43.3136C43.624 28.0666 43.9049 28.0075 44.1857 27.904C44.4518 27.8006 44.6883 27.6527 44.8952 27.4754C45.0874 27.298 45.25 27.0763 45.3682 26.825C45.4865 26.5737 45.5456 26.3076 45.5456 26.0416C45.5456 25.7755 45.4865 25.4947 45.3682 25.2581C45.25 25.0069 45.0874 24.7999 44.8952 24.6078C44.7031 24.4156 44.4666 24.2826 44.1857 24.1791C43.9196 24.0756 43.624 24.0165 43.3136 24.0165H42.1311C41.5989 24.0165 41.0964 23.9278 40.6234 23.7357C40.1504 23.5583 39.7365 23.307 39.3817 22.9818C39.027 22.6714 38.7461 22.2871 38.5392 21.8584C38.3322 21.4297 38.2288 20.9715 38.2288 20.4837C38.2288 19.9812 38.3322 19.5229 38.5392 19.0943C38.7461 18.6656 39.027 18.2961 39.3817 17.9709C39.7365 17.6457 40.1504 17.3944 40.6234 17.2022C41.0964 17.0249 41.5989 16.9214 42.1311 16.9214H45.8117C46.2256 16.9214 46.5655 17.2614 46.5655 17.6752Z" fill="#894083"/>
<path d="M58.3464 22.2427C58.8046 22.2427 59.1741 22.6123 59.1741 23.0705V23.4253C59.1741 23.8835 58.8046 24.253 58.3464 24.253C57.8882 24.253 57.5186 23.8835 57.5186 23.4253V23.0705C57.5186 22.6123 57.8882 22.2427 58.3464 22.2427Z" fill="#894083"/>
<path d="M71.5167 16.9362C71.9749 16.9362 72.3444 17.3057 72.3444 17.7639V28.0518H79.0405C79.4543 28.0518 79.7943 28.3918 79.7943 28.8057C79.7943 29.2196 79.4543 29.5595 79.0405 29.5595H71.2654C70.9402 29.5595 70.6741 29.2935 70.6741 28.9683V17.7639C70.6889 17.3057 71.0585 16.9362 71.5167 16.9362Z" fill="#894083"/>
<path d="M92.1813 22.2427C92.6395 22.2427 93.009 22.6123 93.009 23.0705V23.4253C93.009 23.8835 92.6395 24.253 92.1813 24.253C91.723 24.253 91.3535 23.8835 91.3535 23.4253V23.0705C91.3387 22.6123 91.723 22.2427 92.1813 22.2427Z" fill="#894083"/>
<path d="M105.1 25.066V28.8057C105.1 29.2639 104.731 29.6482 104.258 29.6482C103.799 29.6482 103.415 29.2787 103.415 28.8057V21.4741C103.415 20.8385 103.548 20.2472 103.814 19.6855C104.08 19.1238 104.45 18.636 104.893 18.2221C105.352 17.8083 105.884 17.4831 106.504 17.2318C107.125 16.9953 107.79 16.8622 108.5 16.8622C109.195 16.8622 109.86 16.9805 110.466 17.2318C111.087 17.4683 111.619 17.8083 112.077 18.2221C112.535 18.636 112.89 19.1238 113.156 19.6855C113.422 20.2472 113.555 20.8385 113.555 21.4741V28.8205C113.555 29.2787 113.186 29.6482 112.727 29.6482C112.269 29.6482 111.9 29.2787 111.9 28.8205V25.066H105.1ZM111.915 21.4593C111.915 21.0306 111.826 20.6315 111.648 20.262C111.471 19.8924 111.22 19.5525 110.909 19.2716C110.599 18.9908 110.229 18.7691 109.83 18.6065C109.416 18.4439 108.973 18.37 108.5 18.37C108.027 18.37 107.584 18.4439 107.17 18.6065C106.756 18.7691 106.401 18.9908 106.091 19.2716C105.78 19.5525 105.529 19.8777 105.352 20.262C105.174 20.6315 105.085 21.0454 105.085 21.4593V23.5583H111.915V21.4593Z" fill="#894083"/>
<path d="M127.391 22.2427C127.849 22.2427 128.219 22.6123 128.219 23.0705V23.4253C128.219 23.8835 127.849 24.253 127.391 24.253C126.933 24.253 126.563 23.8835 126.563 23.4253V23.0705C126.563 22.6123 126.933 22.2427 127.391 22.2427Z" fill="#894083"/>
<path d="M136.961 20.587C136.961 20.0993 137.065 19.641 137.272 19.2124C137.479 18.7837 137.745 18.4142 138.1 18.089C138.454 17.7638 138.868 17.5125 139.341 17.3203C139.814 17.143 140.317 17.0395 140.849 17.0395C141.47 17.0395 142.046 17.1577 142.578 17.409C142.874 17.5421 143.155 17.7194 143.406 17.9116C143.717 18.1481 144.13 18.1481 144.441 17.9116C144.692 17.7194 144.958 17.5568 145.269 17.409C145.801 17.1725 146.377 17.0395 146.998 17.0395C147.53 17.0395 148.033 17.1282 148.506 17.3203C148.979 17.5125 149.393 17.7638 149.747 18.089C150.102 18.4142 150.383 18.7837 150.59 19.2124C150.797 19.641 150.9 20.0993 150.9 20.587V29.0125C150.9 29.4707 150.531 29.8403 150.073 29.8403H150.058C149.6 29.8403 149.23 29.4707 149.23 29.0125V20.587C149.23 20.3062 149.171 20.0401 149.053 19.8036C148.934 19.5523 148.787 19.3454 148.58 19.168C148.373 18.9906 148.136 18.8428 147.87 18.7394C147.604 18.6359 147.323 18.5768 147.013 18.5768C146.702 18.5768 146.422 18.6359 146.141 18.7394C145.875 18.8428 145.623 18.9906 145.431 19.168C145.224 19.3454 145.062 19.5671 144.958 19.8036C144.84 20.0549 144.781 20.321 144.781 20.587V29.0125C144.781 29.4707 144.411 29.8403 143.953 29.8403H143.938C143.48 29.8403 143.111 29.4707 143.111 29.0125V20.587C143.111 20.3062 143.051 20.0401 142.933 19.8036C142.815 19.5523 142.667 19.3454 142.46 19.168C142.253 18.9906 142.017 18.8428 141.751 18.7394C141.485 18.6359 141.189 18.5768 140.879 18.5768C140.568 18.5768 140.287 18.6359 140.006 18.7394C139.74 18.8428 139.489 18.9906 139.297 19.168C139.09 19.3454 138.942 19.5671 138.824 19.8036C138.706 20.0549 138.647 20.321 138.647 20.587V29.0125C138.647 29.4707 138.277 29.8403 137.819 29.8403C137.361 29.8403 136.991 29.4707 136.991 29.0125V20.587H136.961Z" fill="#894083"/>
<path d="M21.9987 21.2819C21.7031 21.2819 21.4666 21.0454 21.4666 20.7498C21.4666 16.5962 18.2147 13.2112 14.2384 13.2112C13.9428 13.2112 13.7063 12.9747 13.7063 12.6791C13.7063 12.3835 13.9428 12.147 14.2384 12.147C18.8059 12.147 22.5309 16.0049 22.5309 20.735C22.5309 21.0454 22.2943 21.2819 21.9987 21.2819Z" fill="#894083"/>
<path d="M18.6729 21.2819C18.3773 21.2819 18.1407 21.0454 18.1407 20.7498C18.1407 18.636 16.3965 16.9214 14.2384 16.9214C13.9428 16.9214 13.7063 16.6849 13.7063 16.3893C13.7063 16.0936 13.9428 15.8571 14.2384 15.8571C16.973 15.8571 19.1902 18.0448 19.1902 20.7498C19.205 21.0454 18.9685 21.2819 18.6729 21.2819Z" fill="#894083"/>
<path d="M15.4505 21.1933C15.2288 21.1342 15.081 20.8977 15.0958 20.6611C15.1254 20.2916 14.8002 19.9073 14.3124 19.9073C14.1054 19.9073 13.9133 19.7595 13.8541 19.5525C13.7507 19.183 14.0315 18.8578 14.3567 18.8874C15.3619 18.9613 16.1305 19.8038 16.0566 20.7351C16.0418 21.0455 15.7462 21.282 15.4505 21.1933Z" fill="#894083"/>
<path d="M11.5778 34.8513C18.0225 34.8513 23.2551 29.6187 23.2551 23.174C23.2551 22.967 23.0778 22.8044 22.8856 22.8044H12.6125H12.3021V22.4497V12.9304C12.3168 12.9304 12.2873 12.9304 12.3021 12.9304L12.3168 11.8809C12.3168 11.674 12.1542 11.5114 11.9473 11.4966C11.8291 11.4966 11.7256 11.4966 11.5925 11.4966C5.13304 11.4966 -0.0996094 16.7292 -0.0996094 23.174C-0.0996094 29.6187 5.13304 34.8513 11.5778 34.8513ZM21.7474 24.6078C21.5109 26.2485 20.8901 27.771 19.9737 29.057C19.8554 29.2196 19.6337 29.2639 19.4711 29.1605C17.8599 28.1553 16.6774 26.5441 16.2635 24.6373C16.2192 24.4008 16.3965 24.1791 16.633 24.1791H21.3779C21.5996 24.1791 21.777 24.386 21.7474 24.6078ZM12.6568 24.1791H14.4306C14.6228 24.1791 14.7706 24.3121 14.8001 24.5043C15.1845 26.8545 16.5443 28.8944 18.4364 30.1804C18.6433 30.3134 18.6581 30.609 18.4807 30.7716C16.9139 32.1907 14.9184 33.1367 12.7012 33.3732C12.4794 33.4027 12.2873 33.2254 12.2873 33.0036V24.5634C12.2873 24.3565 12.4499 24.1791 12.6568 24.1791ZM1.79242 24.1791H6.62597C6.86247 24.1791 7.03985 24.4008 6.99551 24.6373C6.55206 26.5737 5.35476 28.1997 3.71401 29.2048C3.55142 29.3083 3.3297 29.2639 3.21144 29.1013C2.28021 27.8006 1.64461 26.2633 1.42288 24.6078C1.37854 24.386 1.55592 24.1791 1.79242 24.1791ZM10.4544 33.3732C8.26671 33.1367 6.27121 32.2054 4.71916 30.8012C4.54178 30.6386 4.55656 30.343 4.7635 30.2099C6.68509 28.924 8.05977 26.8693 8.44409 24.5043C8.47365 24.3269 8.63625 24.1791 8.81363 24.1791H10.4987C10.7057 24.1791 10.8683 24.3417 10.8683 24.5486V32.9889C10.8683 33.2254 10.6761 33.4027 10.4544 33.3732ZM10.8683 13.3443V22.3905C10.8683 22.5975 10.7057 22.7601 10.4987 22.7601H8.90232C8.71016 22.7601 8.54756 22.6123 8.53278 22.4201C8.32584 19.7742 6.90682 17.4683 4.83741 16.0493C4.63047 15.9162 4.61568 15.6206 4.79306 15.458C6.34512 14.1129 8.29628 13.2112 10.4544 12.9747C10.6761 12.9452 10.8683 13.1225 10.8683 13.3443ZM3.77314 17.0544C5.59126 18.1926 6.86247 20.1142 7.09898 22.3462C7.12854 22.5679 6.95116 22.7601 6.72944 22.7601H1.71851C1.49679 22.7601 1.3342 22.5679 1.34898 22.3462C1.49679 20.4098 2.19152 18.6213 3.27057 17.1283C3.38882 16.9953 3.61054 16.951 3.77314 17.0544Z" fill="#FF8600"/>
</g>
<defs>
<clipPath id="clip0">
<rect width="151" height="52" fill="white"/>
</clipPath>
</defs>
</svg>
